<svg viewBox="0 0 70 70" fill="none" xmlns="http://www.w3.org/2000/svg">
<path fill-rule="evenodd" clip-rule="evenodd" d="M6.03717 14.6065C5.83301 15.6798 5.83301 16.969 5.83301 19.5415V40.104C5.83301 51.1028 5.83301 56.6036 9.25134 60.019C12.6697 63.4344 18.1676 63.4373 29.1663 63.4373H40.833C51.8318 63.4373 57.3326 63.4373 60.748 60.019C64.1634 56.6007 64.1663 51.1028 64.1663 40.104V33.6815C64.1663 26.0048 64.1663 22.1636 61.9205 19.6698C61.7145 19.4397 61.4964 19.2207 61.2672 19.0136C58.7734 16.7707 54.9322 16.7707 47.2555 16.7707H46.1647C42.8018 16.7707 41.1188 16.7707 39.5497 16.3244C38.6886 16.0783 37.8586 15.7338 37.0763 15.2978C35.653 14.5073 34.463 13.3144 32.083 10.9373L30.4788 9.33317C29.6797 8.534 29.283 8.13734 28.863 7.78734C27.0566 6.29004 24.8407 5.37217 22.5047 5.15359C21.9622 5.104 21.3963 5.104 20.2705 5.104C17.6951 5.104 16.4088 5.104 15.3355 5.30817C13.0309 5.74341 10.9109 6.86315 9.25223 8.52132C7.59354 10.1795 6.47313 12.302 6.03717 14.6065ZM34.9997 32.0832C35.5798 32.0832 36.1362 32.3136 36.5465 32.7239C36.9567 33.1341 37.1872 33.6905 37.1872 34.2707V37.9165H40.833C41.4132 37.9165 41.9696 38.147 42.3798 38.5572C42.79 38.9674 43.0205 39.5238 43.0205 40.104C43.0205 40.6842 42.79 41.2406 42.3798 41.6508C41.9696 42.061 41.4132 42.2915 40.833 42.2915H37.1872V45.9373C37.1872 46.5175 36.9567 47.0739 36.5465 47.4841C36.1362 47.8944 35.5798 48.1248 34.9997 48.1248C34.4195 48.1248 33.8631 47.8944 33.4529 47.4841C33.0426 47.0739 32.8122 46.5175 32.8122 45.9373V42.2915H29.1663C28.5862 42.2915 28.0298 42.061 27.6195 41.6508C27.2093 41.2406 26.9788 40.6842 26.9788 40.104C26.9788 39.5238 27.2093 38.9674 27.6195 38.5572C28.0298 38.147 28.5862 37.9165 29.1663 37.9165H32.8122V34.2707C32.8122 33.6905 33.0426 33.1341 33.4529 32.7239C33.8631 32.3136 34.4195 32.0832 34.9997 32.0832Z" fill="#CACED9"/>
</svg>
