<svg xmlns="http://www.w3.org/2000/svg" viewBox="0 0 24 24" fill="none">
  <path d="M12.0003 2C18.3266 2 22.1421 8.645 18.7088 13.685L15.9542 17.73V19.5C15.9543 20.119 15.7124 20.716 15.2751 21.1755C14.8378 21.635 14.2364 21.9244 13.5871 21.9875L13.3183 22H10.6823L10.4134 21.9875C9.7642 21.9244 9.16274 21.635 8.72547 21.1755C8.2882 20.716 8.04622 20.119 8.04636 19.5V17.73L5.29179 13.685C1.85715 8.64375 5.67401 2 12.0003 2ZM10.0233 19.5C10.0233 19.6658 10.0927 19.8247 10.2163 19.9419C10.3399 20.0592 10.5075 20.125 10.6823 20.125H13.3183C13.493 20.125 13.6606 20.0592 13.7842 19.9419C13.9078 19.8247 13.9772 19.6658 13.9772 19.5V18.875H10.0233V19.5ZM12.0003 3.875C7.23976 3.875 4.36921 8.875 6.95244 12.6662L9.90207 17H14.0985L17.0481 12.6662C19.6313 8.875 16.7608 3.875 12.0003 3.875ZM11.2556 6.875C11.3105 6.72936 11.4115 6.60338 11.5448 6.5143C11.6781 6.42522 11.8372 6.37741 12.0003 6.37741C12.1634 6.37741 12.3224 6.42522 12.4557 6.5143C12.589 6.60338 12.6901 6.72936 12.7449 6.875L13.3209 8.41625C13.3602 8.52146 13.4238 8.61701 13.507 8.69595C13.5903 8.77488 13.691 8.8352 13.802 8.8725L15.4283 9.42C15.5816 9.47199 15.7141 9.56764 15.8079 9.69384C15.9016 9.82004 15.9519 9.97064 15.9519 10.125C15.9519 10.2794 15.9016 10.43 15.8079 10.5562C15.7141 10.6824 15.5816 10.778 15.4283 10.83L13.802 11.3775C13.691 11.4148 13.5903 11.4751 13.507 11.5541C13.4238 11.633 13.3602 11.7285 13.3209 11.8337L12.7449 13.3762C12.6901 13.5219 12.589 13.6479 12.4557 13.7369C12.3224 13.826 12.1634 13.8738 12.0003 13.8738C11.8372 13.8738 11.6781 13.826 11.5448 13.7369C11.4115 13.6479 11.3105 13.5219 11.2556 13.3762L10.6797 11.8337C10.6403 11.7285 10.5767 11.633 10.4935 11.5541C10.4103 11.4751 10.3095 11.4148 10.1986 11.3775L8.57355 10.83C8.4203 10.778 8.28774 10.6824 8.19402 10.5562C8.10029 10.43 8.04999 10.2794 8.04999 10.125C8.04999 9.97064 8.10029 9.82004 8.19402 9.69384C8.28774 9.56764 8.4203 9.47199 8.57355 9.42L10.1986 8.8725C10.3095 8.8352 10.4103 8.77488 10.4935 8.69595C10.5767 8.61701 10.6403 8.52146 10.6797 8.41625L11.2556 6.875Z" fill="url(#paint0_linear_816_12452)"/>
  <defs>
    <linearGradient id="paint0_linear_816_12452" x1="6.5" y1="9" x2="21.5" y2="16" gradientUnits="userSpaceOnUse">
      <stop stop-color="#1F83F7"/>
      <stop offset="1" stop-color="#3CD0E1"/>
    </linearGradient>
  </defs>
</svg>