<svg viewBox="0 0 13 13" fill="none" xmlns="http://www.w3.org/2000/svg">
<path d="M11.8333 2.5H0.5M10.722 4.16667L10.4153 8.76667C10.2973 10.536 10.2387 11.4207 9.662 11.96C9.08533 12.4993 8.198 12.5 6.42467 12.5H5.90867C4.13533 12.5 3.248 12.5 2.67133 11.96C2.09467 11.4207 2.03533 10.536 1.918 8.76667L1.61133 4.16667M4.5 5.83333L4.83333 9.16667M7.83333 5.83333L7.5 9.16667" stroke="#353841" stroke-linecap="round"/>
<path d="M2.5 2.5H2.57333C2.84163 2.49314 3.10161 2.40548 3.31928 2.24847C3.53695 2.09147 3.70217 1.87243 3.79333 1.62L3.816 1.55133L3.88067 1.35733C3.936 1.19133 3.964 1.10867 4.00067 1.038C4.07281 0.899593 4.17634 0.779994 4.30298 0.688773C4.42963 0.597551 4.57587 0.53724 4.73 0.512667C4.808 0.5 4.89533 0.5 5.07 0.5H7.26333C7.438 0.5 7.52533 0.5 7.60333 0.512667C7.75746 0.53724 7.9037 0.597551 8.03035 0.688773C8.15699 0.779994 8.26053 0.899593 8.33267 1.038C8.36933 1.10867 8.39733 1.19133 8.45267 1.35733L8.51733 1.55133C8.60182 1.83218 8.77654 2.07734 9.01445 2.24884C9.25236 2.42034 9.54018 2.50862 9.83333 2.5" stroke="#353841"/>
</svg>
