<svg width="30" height="30" viewBox="0 0 30 30" fill="none" xmlns="http://www.w3.org/2000/svg">
<g clip-path="url(#clip0_246_7926)">
<mask id="mask0_246_7926" style="mask-type:luminance" maskUnits="userSpaceOnUse" x="0" y="0" width="30" height="30">
<path d="M30 0H0V30H30V0Z" fill="white"/>
</mask>
<g mask="url(#mask0_246_7926)">
<mask id="mask1_246_7926" style="mask-type:luminance" maskUnits="userSpaceOnUse" x="0" y="0" width="30" height="30">
<path d="M30 0H0V30H30V0Z" fill="white"/>
</mask>
<g mask="url(#mask1_246_7926)">
<path d="M30 11.6305V23.898C29.996 25.1065 29.6561 26.2866 29.0229 27.2907C28.3895 28.2946 27.4911 29.0775 26.4405 29.5411C25.7429 29.8473 24.9948 30.0032 24.24 30H5.74507C4.99006 30.002 4.24212 29.8456 3.54421 29.5397C2.8463 29.2338 2.2122 28.7845 1.67834 28.2175C1.14447 27.6505 0.72137 26.977 0.43336 26.2355C0.145348 25.4943 -0.00190038 24.7 7.86454e-05 23.898V6.1179C-0.00388349 5.31466 0.1419 4.51851 0.429025 3.7754C0.716147 3.03229 1.13893 2.3569 1.67299 1.78817C2.20706 1.21945 2.84185 0.768627 3.54073 0.461726C4.23962 0.154826 4.98881 -0.00209271 5.74507 2.10742e-05H10.365C11.3139 0.0029198 12.2475 0.252777 13.0843 0.727723C13.9211 1.20267 14.6355 1.88822 15.165 2.7244L16.47 4.84334C16.6082 5.05749 16.7937 5.23249 17.01 5.35317C17.2251 5.48131 17.4684 5.54724 17.715 5.54434H24.24C24.9941 5.53889 25.7416 5.69238 26.4393 5.99595C27.137 6.29952 27.7712 6.74711 28.305 7.3128C29.3848 8.45766 29.9941 10.0099 30 11.6305Z" fill="#1D7EF8"/>
<path d="M4.81641 22.3623L6.26249 12.6211H12.3698L12.1801 13.8993H7.56898L7.13156 16.846H11.3074L11.1197 18.1107H6.9438L6.31263 22.3623H4.81641ZM15.0034 12.6211L13.5573 22.3623H12.0611L13.5072 12.6211H15.0034ZM24.4109 12.6211L22.9648 22.3623H21.591L17.6556 15.2448H17.574L16.5173 22.3623H15.0211L16.4672 12.6211H17.8546L21.788 19.7521H21.8833L22.9419 12.6211H24.4109Z" fill="#F9FAFC"/>
<path d="M23.5718 11.668L26.3554 13.9502H20.7881L23.5718 11.668Z" fill="#F9FAFC"/>
</g>
</g>
</g>
<defs>
<clipPath id="clip0_246_7926">
<rect width="30" height="30" fill="white"/>
</clipPath>
</defs>
</svg>
