<svg viewBox="0 0 24 24" fill="none" xmlns="http://www.w3.org/2000/svg">
<path d="M6.9502 2.75C7.34843 2.75 7.50288 2.74965 7.64648 2.7627V2.76367C8.29694 2.82461 8.91395 3.08024 9.41699 3.49707C9.52841 3.59003 9.63738 3.69792 9.91992 3.98047L10.4697 4.53027C11.2542 5.31376 11.7461 5.8155 12.3467 6.14941V6.15039C12.6651 6.32787 13.003 6.46814 13.3535 6.56836H13.3545C14.0165 6.75661 14.7173 6.75 15.8281 6.75H16.2021C17.5376 6.75 18.4693 6.75098 19.1768 6.83984C19.8639 6.92617 20.2353 7.08438 20.5029 7.32422V7.3252C20.5618 7.37836 20.618 7.43505 20.6709 7.49414L20.6729 7.49609C20.9139 7.76388 21.0726 8.13468 21.1592 8.82324C21.2482 9.53065 21.25 10.4623 21.25 11.7979V14C21.25 15.9063 21.2476 17.2606 21.1094 18.2881C20.974 19.2938 20.7209 19.8743 20.2979 20.2979C19.875 20.7211 19.2951 20.975 18.2891 21.1104C17.2614 21.2486 15.9067 21.25 14 21.25H10C8.09366 21.25 6.73935 21.2476 5.71191 21.1094C4.70617 20.974 4.12569 20.7209 3.70215 20.2979C3.27891 19.875 3.02496 19.2951 2.88965 18.2891C2.75144 17.2614 2.75 15.9067 2.75 14V6.9502C2.75 6.03418 2.75324 5.67944 2.80664 5.39844V5.39746C2.92812 4.7553 3.24044 4.16381 3.70215 3.70215C4.16421 3.24023 4.75546 2.92788 5.39746 2.80664H5.39844C5.67944 2.75323 6.03321 2.75 6.9502 2.75Z" stroke="#616678" stroke-width="1.5"/>
</svg>
