<svg viewBox="0 0 24 24" fill="none" xmlns="http://www.w3.org/2000/svg">
<path d="M12 2.75C12.4291 2.75003 12.8675 2.86226 13.4766 3.14648C14.1009 3.43783 14.847 3.88092 15.9033 4.51074L15.9043 4.51172L17.2891 5.33594C18.4533 6.02911 19.2751 6.52007 19.8779 6.97363C20.4662 7.41625 20.7884 7.78307 20.9883 8.19922C21.1877 8.61468 21.2711 9.0931 21.2461 9.82422C21.2204 10.574 21.0859 11.5161 20.8936 12.8506V12.8516L20.6143 14.7881C20.368 16.5015 20.1916 17.7162 19.9385 18.6328C19.6911 19.5285 19.3933 20.0476 18.9609 20.4199C18.5282 20.7925 17.9672 21.0122 17.0371 21.1289C16.0861 21.2482 14.8484 21.25 13.1055 21.25H10.8936C9.15089 21.25 7.91384 21.2482 6.96289 21.1289C6.03241 21.0122 5.47094 20.7927 5.03809 20.4199C4.60574 20.0475 4.30789 19.5285 4.06055 18.6328C3.80746 17.7162 3.63104 16.5014 3.38477 14.7881L3.10742 12.8516V12.8506L2.97461 11.9209C2.85435 11.0576 2.77324 10.3868 2.75391 9.82422C2.73194 9.18433 2.79348 8.73834 2.94238 8.3584L3.01074 8.19922C3.21055 7.78309 3.53348 7.41642 4.12207 6.97363C4.72508 6.52002 5.54715 6.02915 6.71094 5.33594L8.0957 4.51172C9.15282 3.8817 9.89907 3.43791 10.5234 3.14648C11.1325 2.86222 11.5709 2.75 12 2.75Z" stroke="#616678" stroke-width="1.5"/>
</svg>
