<svg viewBox="0 0 20 20" fill="none" xmlns="http://www.w3.org/2000/svg">
<path fill-rule="evenodd" clip-rule="evenodd" d="M0.334822 5.875C-0.205178 7.002 -0.0151776 8.321 0.364822 10.958L0.642822 12.895C1.12982 16.283 1.37382 17.976 2.54882 18.988C3.72382 20 5.44682 20 8.89382 20H11.1058C14.5528 20 16.2758 20 17.4508 18.988C18.6258 17.976 18.8698 16.283 19.3568 12.895L19.6358 10.958C20.0158 8.321 20.2058 7.002 19.6648 5.875C19.1238 4.748 17.9738 4.062 15.6728 2.692L14.2878 1.867C12.1998 0.622 11.1538 0 9.99982 0C8.84582 0 7.80082 0.622 5.71182 1.867L4.32682 2.692C2.02682 4.062 0.875822 4.748 0.334822 5.875Z" fill="#353841"/>
</svg>
