<svg xmlns="http://www.w3.org/2000/svg" viewBox="0 0 16 16" fill="none">
  <path d="M9.41633 3.24725L9.97251 2.69104C10.415 2.24858 11.015 2 11.6408 2C12.2665 2 12.8665 2.24858 13.309 2.69104C13.7514 3.13351 14 3.73362 14 4.35937C14 4.98511 13.7514 5.58522 13.309 6.02769L12.7528 6.5839M9.41633 3.24725C9.41633 3.24725 9.48593 4.42927 10.5287 5.47148C11.5715 6.5143 12.7528 6.5839 12.7528 6.5839M9.41633 3.24725L4.30331 8.35932C3.95713 8.70613 3.78373 8.87953 3.63494 9.07033C3.45938 9.29562 3.30871 9.53924 3.18555 9.79694C3.08176 10.0153 3.00436 10.2481 2.84957 10.7126L2.19319 12.6812M12.7528 6.5839L7.6404 11.696C7.29421 12.0422 7.12081 12.2156 6.93002 12.3644C6.70474 12.5399 6.46114 12.6906 6.20345 12.8138C5.98505 12.9176 5.75286 12.995 5.28788 13.1498L3.31935 13.8062M2.19319 12.6812L2.033 13.1618C1.99539 13.274 1.98981 13.3944 2.01688 13.5096C2.04396 13.6247 2.10262 13.7301 2.18627 13.8137C2.26993 13.8974 2.37525 13.956 2.49041 13.9831C2.60557 14.0102 2.726 14.0046 2.83817 13.967L3.31935 13.8062M2.19319 12.6812L3.31935 13.8062" stroke="#616678"/>
</svg>