<svg viewBox="0 0 16 16" fill="none" xmlns="http://www.w3.org/2000/svg">
<path d="M13.6668 4H2.3335M12.5555 5.66667L12.2488 10.2667C12.1308 12.036 12.0722 12.9207 11.4955 13.46C10.9188 13.9993 10.0315 14 8.25816 14H7.74216C5.96883 14 5.0815 14 4.50483 13.46C3.92816 12.9207 3.86883 12.036 3.7515 10.2667L3.44483 5.66667M6.3335 7.33333L6.66683 10.6667M9.66683 7.33333L9.3335 10.6667" stroke="#353841" stroke-linecap="round"/>
<path d="M4.3335 4H4.40683C4.67513 3.99314 4.93511 3.90548 5.15278 3.74847C5.37045 3.59147 5.53567 3.37243 5.62683 3.12L5.6495 3.05133L5.71416 2.85733C5.7695 2.69133 5.7975 2.60867 5.83416 2.538C5.9063 2.39959 6.00984 2.27999 6.13648 2.18877C6.26313 2.09755 6.40937 2.03724 6.5635 2.01267C6.6415 2 6.72883 2 6.9035 2H9.09683C9.2715 2 9.35883 2 9.43683 2.01267C9.59096 2.03724 9.7372 2.09755 9.86385 2.18877C9.99049 2.27999 10.094 2.39959 10.1662 2.538C10.2028 2.60867 10.2308 2.69133 10.2862 2.85733L10.3508 3.05133C10.4353 3.33218 10.61 3.57734 10.8479 3.74884C11.0859 3.92034 11.3737 4.00862 11.6668 4" stroke="#353841"/>
</svg>
